<svg id="Layer_1" data-name="Layer 1" xmlns="http://www.w3.org/2000/svg" viewBox="0 0 480 480"><defs><style>.cls-1{fill:#fff;}</style></defs><title>computer-white</title><g id="Computer_smartphone" data-name="Computer smartphone"><path class="cls-1" d="M472,16H40A24,24,0,0,0,16,40V328a24,24,0,0,0,24,24H204l-33.34,80H144v16H320v8a40.05,40.05,0,0,0,40,40h96a40.05,40.05,0,0,0,40-40V40A24,24,0,0,0,472,16ZM40,336a8,8,0,0,1-8-8V40a8,8,0,0,1,8-8H472a8,8,0,0,1,8,8V216a40.44,40.44,0,0,0-4-2.62,37.15,37.15,0,0,0-4-2V40H40V288H320v48ZM360,208a40.05,40.05,0,0,0-40,40v24H56V56H456V208Zm72,16v8H384v-8ZM320,380.8,308,352h12ZM221.34,352h69.32L320,422.4V432H188ZM480,456a24,24,0,0,1-24,24H360a24,24,0,0,1-24-24V248a24,24,0,0,1,24-24h8v8a16,16,0,0,0,16,16h48a16,16,0,0,0,16-16v-8h8a46.88,46.88,0,0,1,6.14.8,22.74,22.74,0,0,1,5.87,2.4A24,24,0,0,1,480,248Z" transform="translate(-16 -16)"/><rect class="cls-1" x="232" y="232" width="16" height="16"/><rect class="cls-1" x="264" y="232" width="16" height="16"/><rect class="cls-1" x="200" y="232" width="16" height="16"/><rect class="cls-1" x="96" y="416" width="16" height="16"/><rect class="cls-1" x="384" y="424" width="16" height="16"/><rect class="cls-1" x="416" y="424" width="16" height="16"/><rect class="cls-1" x="352" y="424" width="16" height="16"/></g></svg>