<?xml version="1.0"?>
<svg xmlns="http://www.w3.org/2000/svg" viewBox="0 0 64 64" width="512" height="512"><g id="Computer_smartphone" data-name="Computer smartphone"><path d="M59,2H5A3,3,0,0,0,2,5V41a3,3,0,0,0,3,3H25.5L21.333,54H18v2H40v1a5.006,5.006,0,0,0,5,5H57a5.006,5.006,0,0,0,5-5V5A3,3,0,0,0,59,2ZM5,42a1,1,0,0,1-1-1V5A1,1,0,0,1,5,4H59a1,1,0,0,1,1,1V27a4.978,4.978,0,0,0-.5-.328,4.761,4.761,0,0,0-.5-.247V5H5V36H40v6ZM45,26a5.006,5.006,0,0,0-5,5v3H7V7H57V26Zm9,2v1H48V28ZM40,47.6,38.5,44H40ZM27.667,44h8.666L40,52.8V54H23.5ZM60,57a3,3,0,0,1-3,3H45a3,3,0,0,1-3-3V31a3,3,0,0,1,3-3h1v1a2,2,0,0,0,2,2h6a2,2,0,0,0,2-2V28h1a6,6,0,0,1,.768.1,2.848,2.848,0,0,1,.733.3A3,3,0,0,1,60,31Z"/><rect x="31" y="31" width="2" height="2"/><rect x="35" y="31" width="2" height="2"/><rect x="27" y="31" width="2" height="2"/><rect x="14" y="54" width="2" height="2"/><rect x="50" y="55" width="2" height="2"/><rect x="54" y="55" width="2" height="2"/><rect x="46" y="55" width="2" height="2"/></g></svg>
