<?xml version="1.0" encoding="utf-8"?>
<!-- Generator: Adobe Illustrator 18.0.0, SVG Export Plug-In . SVG Version: 6.00 Build 0)  -->
<!DOCTYPE svg PUBLIC "-//W3C//DTD SVG 1.1//EN" "http://www.w3.org/Graphics/SVG/1.1/DTD/svg11.dtd">
<svg version="1.1" id="Layer_1" xmlns="http://www.w3.org/2000/svg" xmlns:xlink="http://www.w3.org/1999/xlink" x="0px" y="0px"
	 viewBox="0 0 64 64" enable-background="new 0 0 64 64" xml:space="preserve">
<g>
	<g>
		<g>
			<g>
				<path fill="#B387F9" d="M32,0c17.7,0,32,14.3,32,32S49.7,64,32,64S0,49.7,0,32S14.3,0,32,0z"/>
			</g>
		</g>
	</g>
	<g>
		<g>
			<g>
				<g>
					<polygon fill="#D8D8D8" points="45.6,50.8 44.7,53.8 19.9,53.8 19,50.8 					"/>
				</g>
			</g>
		</g>
		<g>
			<g>
				<g>
					<path fill="#FFFFFF" d="M43.8,50.8l1.4-12.6C50,37,53,33.1,53,27.9c0-6.1-4.9-11.1-10.9-11.2c-1.9-3.8-5.8-6.3-10.1-6.3
						s-8.2,2.5-10.1,6.3C15.9,16.9,11,21.9,11,27.9c0,4.8,3.1,8.7,7.7,10.2l1.4,12.6H43.8z"/>
				</g>
			</g>
		</g>
		<g>
			<g>
				<g>
					<line fill="#FFFFFF" x1="20.2" y1="50.8" x2="43.8" y2="50.8"/>
				</g>
			</g>
		</g>
		<g>
			<g>
				<g>
					<path fill="#D8D8D8" d="M26.4,47.6c-0.6,0-1-0.4-1-1v-7c0-0.6,0.4-1,1-1s1,0.4,1,1v7C27.4,47.1,27,47.6,26.4,47.6z"/>
				</g>
			</g>
		</g>
		<g>
			<g>
				<g>
					<path fill="#D8D8D8" d="M37.6,47.6c-0.6,0-1-0.4-1-1v-7c0-0.6,0.4-1,1-1s1,0.4,1,1v7C38.6,47.1,38.2,47.6,37.6,47.6z"/>
				</g>
			</g>
		</g>
		<g>
			<g>
				<g>
					<path fill="#D8D8D8" d="M32,47.6c-0.6,0-1-0.4-1-1V35.4c0-0.6,0.4-1,1-1s1,0.4,1,1v11.2C33,47.1,32.6,47.6,32,47.6z"/>
				</g>
			</g>
		</g>
	</g>
</g>
</svg>
