<?xml version="1.0" encoding="iso-8859-1"?>
<!-- Generator: Adobe Illustrator 19.0.0, SVG Export Plug-In . SVG Version: 6.00 Build 0)  -->
<svg version="1.1" id="Layer_1" xmlns="http://www.w3.org/2000/svg" xmlns:xlink="http://www.w3.org/1999/xlink" x="0px" y="0px"
	 viewBox="0 0 512 512" style="enable-background:new 0 0 512 512;" xml:space="preserve">
<g>
	<g>
		<path d="M397.127,257.388c23.931-0.922,43.119-20.667,43.119-44.82c0-10.27-3.477-19.739-9.305-27.31
			c0.037-0.305,0.063-0.614,0.063-0.929V91.913C431.004,41.232,389.773,0,339.092,0H118.97c-2.821,0-5.407,1.571-6.708,4.073
			l-6.772,13.024l-26.667,1.739c-2.27,0.147-4.353,1.311-5.672,3.166c-1.319,1.855-1.73,4.205-1.122,6.399l15.458,55.786
			c1.114,4.025,5.282,6.384,9.306,5.268c4.024-1.115,6.383-5.282,5.268-9.306L89.085,33.323l21.641-1.411
			c2.638-0.171,4.997-1.71,6.216-4.057l6.619-12.731h215.53c42.342,0,76.79,34.448,76.79,76.791v80.769
			c-4.001-2.065-8.349-3.545-12.933-4.327v-21.571c0-14.599-2.198-28.939-6.527-42.745c1.518-0.067,3.036-0.127,4.558-0.206
			c4.171-0.215,7.378-3.77,7.163-7.939s-3.782-7.387-7.939-7.163c-43.7,2.248-85.877-0.63-125.361-8.548
			c-4.092-0.822-8.08,1.834-8.9,5.927c-0.821,4.094,1.832,8.08,5.927,8.9c31.791,6.376,65.237,9.583,99.774,9.583
			c2.993,0,6-0.032,9.01-0.081c4.76,13.577,7.172,27.782,7.172,42.272v10.829h-29.928c-9.092-12.989-24.155-21.508-41.178-21.508
			c-21.113,0-39.214,13.098-46.637,31.59H250.44c-7.423-18.491-25.524-31.59-46.638-31.59c-17.023,0-32.086,8.518-41.177,21.508
			h-29.367v-6.796c0-0.112-0.012-0.221-0.017-0.332c33.516-29.514,44.93-66.6,48.666-84.841c6.777,3.37,17.026,8.02,30.612,12.948
			c3.931,1.425,8.263-0.605,9.687-4.531c1.424-3.926-0.605-8.262-4.53-9.687c-24.417-8.856-37.486-16.799-37.607-16.874
			c-2.234-1.378-5.024-1.491-7.368-0.312c-2.345,1.18-3.911,3.497-4.137,6.113c-0.053,0.617-5.944,62.071-61.1,97.796
			c-3.505,2.27-4.507,6.952-2.236,10.457c1.448,2.235,3.875,3.452,6.354,3.452c1.408,0,2.834-0.393,4.103-1.216
			c0.834-0.54,1.634-1.096,2.448-1.645v6.117c-5.692,0.902-11.029,2.882-15.8,5.718v-36.769c0-4.176-3.385-7.561-7.561-7.561
			c-4.177,0-7.561,3.385-7.561,7.561v51.51c-4.357,6.913-6.889,15.088-6.889,23.846c0,23.659,18.413,43.086,41.658,44.737
			c5.57,21.753,16.923,42.085,33.42,59.301c18.258,19.053,41.529,32.582,66.778,39.312v6.367h-29.563
			c-0.102,0-0.204,0.004-0.305,0.004c-0.026,0-0.05-0.004-0.077-0.004c-0.043,0-0.086,0.006-0.128,0.006
			c-52.51,0.276-95.146,43.075-95.146,95.649c0,4.176,3.384,7.561,7.561,7.561s7.561-3.385,7.561-7.561
			c0-41.726,31.899-76.134,72.589-80.138v119.075H104.52c-4.177,0-7.561,3.385-7.561,7.561c0,4.176,3.384,7.561,7.561,7.561h305.084
			c4.177,0,7.561-3.385,7.561-7.561v-33.392c0-25.718-10.04-52.571-27.544-73.672c-16.838-20.299-38.038-32.409-60.38-34.689
			c-0.759-0.256-1.57-0.401-2.416-0.401c-0.434,0-0.856,0.044-1.27,0.115c-1.345-0.072-2.694-0.115-4.045-0.115h-24.658v-6.565
			C344.953,342.604,383.097,305.11,397.127,257.388z M402.948,216.854v-33.048c12.747,3.355,22.175,14.978,22.175,28.763
			c0,14.557-10.514,26.696-24.347,29.242C402.2,233.702,402.948,225.364,402.948,216.854z M95.446,212.568
			c0-13.969,9.684-25.714,22.689-28.89v37.049c-0.291,7.042,0.014,14.036,0.877,20.934
			C105.567,238.81,95.446,226.851,95.446,212.568z M334.387,378.779c38.964,8.326,67.655,53.162,67.655,92.267v25.831h-67.655
			V378.779z M281.778,182.818h11.5c4.177,0,7.561-3.385,7.561-7.561s-3.385-7.561-7.561-7.561h-6.294
			c6.22-9.881,17.22-16.467,29.734-16.467c19.365,0,35.119,15.754,35.119,35.118s-15.754,35.118-35.119,35.118
			c-19.364,0-35.118-15.754-35.118-35.118C281.601,185.156,281.662,183.978,281.778,182.818z M203.802,151.228
			c12.516,0,23.515,6.585,29.735,16.467h-6.295c-4.177,0-7.561,3.385-7.561,7.561s3.385,7.561,7.561,7.561h11.501
			c0.116,1.16,0.177,2.338,0.177,3.529c0,19.364-15.754,35.118-35.119,35.118c-19.364,0-35.118-15.754-35.118-35.118
			S184.438,151.228,203.802,151.228z M319.264,377.407v119.47h-119.47v-119.47h22.388v21.386c0,20.586,16.748,37.335,37.334,37.335
			c20.587,0,37.335-16.749,37.335-37.335v-21.386H319.264z M237.305,398.793v-39.691c7.158,1.105,14.421,1.671,21.726,1.671
			c7.723,0,15.301-0.619,22.698-1.796v39.816h-0.001c0,12.247-9.965,22.212-22.212,22.212
			C247.269,421.005,237.305,411.04,237.305,398.793z M259.029,345.651c-34.856-0.002-68.648-14.401-92.707-39.509
			c-22.653-23.638-34.397-53.802-33.071-84.934c0.005-0.107,0.007-0.215,0.007-0.322v-48.15h22.191
			c-1.221,4.332-1.888,8.893-1.888,13.611c0,27.704,22.538,50.241,50.241,50.241c27.704,0,50.242-22.538,50.242-50.241
			c0-1.188-0.056-2.361-0.138-3.529h12.709c-0.082,1.167-0.138,2.341-0.138,3.529c0,27.704,22.538,50.241,50.241,50.241
			c27.704,0,50.242-22.538,50.242-50.241c0-4.717-0.667-9.278-1.889-13.611h22.754v2.432c0,0.033-0.005,0.065-0.005,0.098
			s0.004,0.065,0.005,0.098v41.491C387.824,287.873,330.046,345.651,259.029,345.651z"/>
	</g>
</g>
<g>
	<g>
		<path d="M281.411,237.417c-2.954-2.953-7.741-2.953-10.694,0c-6.029,6.03-15.844,6.03-21.873,0c-2.954-2.953-7.741-2.953-10.694,0
			c-2.953,2.953-2.953,7.741,0,10.693c5.962,5.963,13.797,8.946,21.63,8.946c7.834,0,15.667-2.982,21.631-8.946
			C284.364,245.157,284.364,240.369,281.411,237.417z"/>
	</g>
</g>
<g>
	<g>
		<path d="M314.219,273.725c-1.169-2.826-3.928-4.668-6.986-4.668h-94.906c-3.058,0-5.816,1.842-6.986,4.668
			c-1.171,2.825-0.524,6.077,1.638,8.24c13.391,13.391,31.73,31.73,51.99,31.947c0.127,0.001,0.251,0.002,0.377,0.002
			c19.629,0.001,37.764-16.48,53.233-31.949C314.743,279.802,315.389,276.55,314.219,273.725z M259.344,298.792
			c-0.07,0-0.139-0.001-0.21-0.001c-9.022-0.097-19.018-6.882-27.904-14.612h57.011
			C279.274,291.872,268.868,298.792,259.344,298.792z"/>
	</g>
</g>
<g>
	<g>
		<path d="M235.133,122.329c-8.835-8.834-20.579-13.699-33.073-13.699s-24.237,4.866-33.072,13.699
			c-2.953,2.953-2.953,7.741,0,10.693c2.954,2.954,7.741,2.953,10.694,0c5.978-5.978,13.925-9.269,22.378-9.269
			s16.401,3.292,22.378,9.269c1.477,1.477,3.412,2.215,5.347,2.215c1.935,0,3.87-0.738,5.347-2.215
			C238.086,130.069,238.086,125.282,235.133,122.329z"/>
	</g>
</g>
<g>
	<g>
		<path d="M340.661,119.137c-8.835-8.834-20.579-13.699-33.073-13.699c-12.492,0-24.238,4.865-33.073,13.699
			c-2.953,2.953-2.953,7.74,0,10.693c2.953,2.953,7.74,2.954,10.695,0c5.977-5.978,13.925-9.269,22.378-9.269
			c8.453,0,16.401,3.292,22.378,9.269c1.477,1.477,3.412,2.215,5.347,2.215c1.935,0,3.87-0.738,5.347-2.215
			C343.614,126.877,343.614,122.09,340.661,119.137z"/>
	</g>
</g>
<g>
	<g>
		<path d="M204.834,170.215c-4.177,0-7.561,3.385-7.561,7.561v17.139c0,4.177,3.385,7.561,7.561,7.561
			c4.177,0,7.561-3.385,7.561-7.561v-17.139C212.396,173.601,209.011,170.215,204.834,170.215z"/>
	</g>
</g>
<g>
	<g>
		<path d="M315.735,170.215c-4.177,0-7.561,3.385-7.561,7.561v17.139c0,4.177,3.385,7.561,7.561,7.561
			c4.177,0,7.561-3.385,7.561-7.561v-17.139C323.296,173.601,319.912,170.215,315.735,170.215z"/>
	</g>
</g>
<g>
	<g>
		<path d="M299.092,431.407c-2.824-1.169-6.076-0.523-8.24,1.639l-14.618,14.618c-3.66-5.037-9.58-8.33-16.268-8.33
			c-6.353,0-12.019,2.968-15.708,7.582l-13.87-13.869c-2.164-2.164-5.416-2.81-8.241-1.639c-2.826,1.171-4.668,3.928-4.668,6.986
			v43.688c0,3.059,1.842,5.815,4.668,6.986c0.936,0.387,1.918,0.576,2.891,0.576c1.968,0,3.902-0.768,5.349-2.215l14.596-14.596
			c3.687,4.123,9.028,6.738,14.982,6.738c6.286,0,11.904-2.902,15.596-7.432l15.289,15.289c1.448,1.447,3.381,2.215,5.349,2.215
			c0.974,0,1.956-0.189,2.891-0.576c2.826-1.171,4.668-3.928,4.668-6.986v-43.688C303.76,435.334,301.918,432.578,299.092,431.407z
			 M232.604,463.828v-7.179l3.59,3.589L232.604,463.828z M259.967,464.449c-2.754,0-4.996-2.241-4.996-4.996
			c0-2.754,2.241-4.996,4.996-4.996c2.754,0,4.996,2.241,4.996,4.996C264.963,462.208,262.721,464.449,259.967,464.449z
			 M288.638,463.828l-3.59-3.59l3.59-3.589V463.828z"/>
	</g>
</g>
<g>
</g>
<g>
</g>
<g>
</g>
<g>
</g>
<g>
</g>
<g>
</g>
<g>
</g>
<g>
</g>
<g>
</g>
<g>
</g>
<g>
</g>
<g>
</g>
<g>
</g>
<g>
</g>
<g>
</g>
</svg>
