<?xml version="1.0" encoding="iso-8859-1"?>
<!-- Generator: Adobe Illustrator 23.0.0, SVG Export Plug-In . SVG Version: 6.00 Build 0)  -->
<svg xmlns="http://www.w3.org/2000/svg" xmlns:xlink="http://www.w3.org/1999/xlink" version="1.1" id="Layer_1" x="0px" y="0px" viewBox="0 0 48 48" style="enable-background:new 0 0 48 48;" xml:space="preserve" width="48px" height="48px">
<polygon style="fill:#FF8F00;" points="42,11 47.691,9 42,7 36.309,9 "/>
<polygon style="fill:#FF8F00;" points="43,12.667 43,19 48,17.333 48,11 "/>
<polygon style="fill:#FF8F00;" points="41,12.667 36,11 36,17.333 41,19 "/>
<polygon style="fill:#FF8F00;" points="28,11 33.691,9 28,7 22.309,9 "/>
<polygon style="fill:#FF8F00;" points="29,12.667 29,19 34,17.333 34,11 "/>
<polygon style="fill:#FF8F00;" points="27,12.667 22,11 22,17.333 27,19 "/>
<polygon style="fill:#FF8F00;" points="21,23 26.691,21 21,19 15.309,21 "/>
<polygon style="fill:#FF8F00;" points="22,24.667 22,31 27,29.333 27,23 "/>
<polygon style="fill:#FF8F00;" points="20,24.667 15,23 15,29.333 20,31 "/>
<polygon style="fill:#FF8F00;" points="7,23 12.691,21 7,19 1.309,21 "/>
<polygon style="fill:#FF8F00;" points="8,24.667 8,31 13,29.333 13,23 "/>
<polygon style="fill:#FF8F00;" points="6,24.667 1,23 1,29.333 6,31 "/>
<polygon style="fill:#FF8F00;" points="14,35 19.691,33 14,31 8.309,33 "/>
<polygon style="fill:#FF8F00;" points="15,36.667 15,43 20,41.333 20,35 "/>
<polygon style="fill:#FF8F00;" points="13,36.667 8,35 8,41.333 13,43 "/>
</svg>
